<svg width="148" height="148" viewBox="0 0 148 148" fill="none" xmlns="http://www.w3.org/2000/svg">
<path opacity="0.6" d="M15.78 9.85C16.9122 9.85 17.83 8.93218 17.83 7.8C17.83 6.66782 16.9122 5.75 15.78 5.75C14.6478 5.75 13.73 6.66782 13.73 7.8C13.73 8.93218 14.6478 9.85 15.78 9.85Z" fill="#BDFB46"/>
<path opacity="0.5" d="M132.22 17.6404C133.126 17.6404 133.86 16.9061 133.86 16.0004C133.86 15.0946 133.126 14.3604 132.22 14.3604C131.314 14.3604 130.58 15.0946 130.58 16.0004C130.58 16.9061 131.314 17.6404 132.22 17.6404Z" fill="#BDFB46"/>
<path opacity="0.3" d="M21.52 107.43C22.1993 107.43 22.75 106.879 22.75 106.2C22.75 105.52 22.1993 104.97 21.52 104.97C20.8407 104.97 20.29 105.52 20.29 106.2C20.29 106.879 20.8407 107.43 21.52 107.43Z" fill="#6A40FC"/>
<path opacity="0.25" d="M129.35 104.15C130.482 104.15 131.4 103.232 131.4 102.1C131.4 100.968 130.482 100.05 129.35 100.05C128.218 100.05 127.3 100.968 127.3 102.1C127.3 103.232 128.218 104.15 129.35 104.15Z" fill="#6A40FC"/>
<path opacity="0.4" d="M33 41.8301C33.6793 41.8301 34.23 41.2794 34.23 40.6001C34.23 39.9208 33.6793 39.3701 33 39.3701C32.3207 39.3701 31.77 39.9208 31.77 40.6001C31.77 41.2794 32.3207 41.8301 33 41.8301Z" fill="#BDFB46"/>
<path opacity="0.4" d="M118.28 39.7803C118.959 39.7803 119.51 39.2296 119.51 38.5503C119.51 37.871 118.959 37.3203 118.28 37.3203C117.6 37.3203 117.05 37.871 117.05 38.5503C117.05 39.2296 117.6 39.7803 118.28 39.7803Z" fill="#BDFB46"/>
<path d="M24.7998 24.2003V19.2803" stroke="#BDFB46" stroke-width="0.778409" stroke-linecap="round"/>
<path d="M22.3398 21.7402H27.2598" stroke="#BDFB46" stroke-width="0.778409" stroke-linecap="round"/>
<path opacity="0.5" d="M23.1602 20.0996L26.4402 23.3796" stroke="#BDFB46" stroke-width="0.467045" stroke-linecap="round"/>
<path opacity="0.5" d="M26.4402 20.0996L23.1602 23.3796" stroke="#BDFB46" stroke-width="0.467045" stroke-linecap="round"/>
<path d="M124.02 28.2999V23.3799" stroke="#BDFB46" stroke-width="0.778409" stroke-linecap="round"/>
<path d="M121.56 25.8398H126.48" stroke="#BDFB46" stroke-width="0.778409" stroke-linecap="round"/>
<path d="M14.1492 62.1454C14.0076 62.1454 13.9003 62.1112 13.8272 62.0427C13.7541 61.9696 13.7176 61.876 13.7176 61.7618C13.7176 61.6385 13.7519 61.5244 13.8204 61.4193C13.8934 61.3097 13.987 61.223 14.1012 61.159C14.2154 61.0951 14.3341 61.0631 14.4574 61.0631C14.5122 61.0631 14.567 61.07 14.6218 61.0837C14.6812 61.0928 14.7383 61.1088 14.7931 61.1316V57.8025H15.0465V61.1522C15.0465 61.3486 15.0031 61.5221 14.9164 61.6728C14.8342 61.8189 14.7246 61.9354 14.5876 62.0221C14.4551 62.1043 14.309 62.1454 14.1492 62.1454ZM15.4781 61.1796C15.5557 61.0015 15.6128 60.8302 15.6493 60.6658C15.6858 60.4969 15.7041 60.3416 15.7041 60.2C15.7041 59.9854 15.6653 59.805 15.5877 59.6589C15.5146 59.5082 15.421 59.3895 15.3068 59.3027C15.1926 59.2159 15.0762 59.1634 14.9575 59.1451V58.0423C15.0123 58.1473 15.0762 58.2455 15.1493 58.3368C15.2223 58.4236 15.2954 58.5104 15.3685 58.5971C15.4735 58.7113 15.574 58.8346 15.6699 58.967C15.7658 59.0995 15.8434 59.2525 15.9028 59.426C15.9667 59.5995 15.9987 59.805 15.9987 60.0425C15.9987 60.2571 15.969 60.4581 15.9096 60.6453C15.8548 60.8325 15.768 61.0106 15.6493 61.1796H15.4781Z" fill="#BDFB46"/>
<path d="M127.978 55.8163C127.862 55.8163 127.774 55.7864 127.715 55.7266C127.655 55.6706 127.625 55.5958 127.625 55.5024C127.625 55.4015 127.653 55.3081 127.709 55.2222C127.769 55.1325 127.845 55.0615 127.939 55.0092C128.032 54.9569 128.129 54.9308 128.23 54.9308C128.275 54.9308 128.32 54.9364 128.365 54.9476C128.413 54.955 128.46 54.9681 128.505 54.9868V52.4648L130.601 51.9267V54.7794C130.601 54.9401 130.565 55.0821 130.494 55.2054C130.427 55.3249 130.337 55.4202 130.225 55.4912C130.117 55.5585 129.997 55.5921 129.867 55.5921C129.751 55.5921 129.663 55.5641 129.603 55.508C129.543 55.4482 129.514 55.3716 129.514 55.2782C129.514 55.1774 129.542 55.0839 129.598 54.998C129.657 54.9083 129.734 54.8373 129.827 54.785C129.921 54.7327 130.018 54.7066 130.119 54.7066C130.164 54.7066 130.209 54.7122 130.253 54.7234C130.302 54.7309 130.349 54.7439 130.394 54.7626V52.2518L130.489 52.3302L128.628 52.8459L128.712 52.7114V55.0036C128.712 55.1643 128.677 55.3063 128.606 55.4296C128.538 55.5491 128.449 55.6425 128.337 55.7098C128.228 55.7808 128.109 55.8163 127.978 55.8163Z" fill="#6A40FC"/>
<path opacity="0.12" d="M74.2864 134.457C87.6994 134.457 98.5727 132.071 98.5727 129.127C98.5727 126.183 87.6994 123.797 74.2864 123.797C60.8734 123.797 50 126.183 50 129.127C50 132.071 60.8734 134.457 74.2864 134.457Z" fill="#6A40FC"/>
<path d="M73.9997 23.3802C93.6797 20.1002 114.18 35.6802 115.82 57.0002C118.28 80.7802 105.98 109.48 73.9997 112.76C42.0197 116.04 29.7197 85.7002 30.5397 60.2802C30.5397 35.6802 54.3197 26.6602 73.9997 23.3802Z" fill="#6A40FC"/>
<path opacity="0.4" d="M74.0002 98.8195C85.7749 98.8195 95.3202 91.477 95.3202 82.4195C95.3202 73.3621 85.7749 66.0195 74.0002 66.0195C62.2255 66.0195 52.6802 73.3621 52.6802 82.4195C52.6802 91.477 62.2255 98.8195 74.0002 98.8195Z" fill="#7B55FC"/>
<path d="M36.2797 78.3204C27.2597 75.0404 21.5197 84.0604 25.6197 91.4404C28.8997 97.1804 37.9197 93.9004 40.3797 86.5204L36.2797 78.3204Z" fill="#5A32D4"/>
<path d="M24.8004 94.7199C27.5176 94.7199 29.7204 92.5171 29.7204 89.7999C29.7204 87.0826 27.5176 84.8799 24.8004 84.8799C22.0831 84.8799 19.8804 87.0826 19.8804 89.7999C19.8804 92.5171 22.0831 94.7199 24.8004 94.7199Z" fill="#5A32D4"/>
<path d="M111.72 68.4798C121.56 62.7398 128.94 70.1198 126.48 78.3198C124.02 84.8798 115 84.8798 112.54 78.3198L111.72 68.4798Z" fill="#5A32D4"/>
<path d="M127.3 79.9601C130.017 79.9601 132.22 77.7574 132.22 75.0401C132.22 72.3229 130.017 70.1201 127.3 70.1201C124.583 70.1201 122.38 72.3229 122.38 75.0401C122.38 77.7574 124.583 79.9601 127.3 79.9601Z" fill="#5A32D4"/>
<path d="M128.757 73.489C130.247 74.0311 132.27 72.2281 133.277 69.462C134.284 66.6958 133.892 64.014 132.403 63.4718C130.914 62.9297 128.89 64.7326 127.883 67.4988C126.876 70.2649 127.268 72.9468 128.757 73.489Z" fill="#5A32D4"/>
<path d="M51.04 52.0805C66.3467 32.9471 81.6534 32.9471 96.96 52.0805" stroke="#BDFB46" stroke-width="4.04773" stroke-linecap="round"/>
<path d="M51.0402 66.0205C55.116 66.0205 58.4202 61.9821 58.4202 57.0005C58.4202 52.0189 55.116 47.9805 51.0402 47.9805C46.9643 47.9805 43.6602 52.0189 43.6602 57.0005C43.6602 61.9821 46.9643 66.0205 51.0402 66.0205Z" fill="#BDFB46"/>
<path d="M51.0399 62.3299C53.3043 62.3299 55.1399 59.9436 55.1399 56.9999C55.1399 54.0562 53.3043 51.6699 51.0399 51.6699C48.7756 51.6699 46.9399 54.0562 46.9399 56.9999C46.9399 59.9436 48.7756 62.3299 51.0399 62.3299Z" fill="#D4FF60"/>
<path d="M96.9601 66.0205C101.036 66.0205 104.34 61.9821 104.34 57.0005C104.34 52.0189 101.036 47.9805 96.9601 47.9805C92.8842 47.9805 89.5801 52.0189 89.5801 57.0005C89.5801 61.9821 92.8842 66.0205 96.9601 66.0205Z" fill="#BDFB46"/>
<path d="M96.9599 62.3299C99.2242 62.3299 101.06 59.9436 101.06 56.9999C101.06 54.0562 99.2242 51.6699 96.9599 51.6699C94.6955 51.6699 92.8599 54.0562 92.8599 56.9999C92.8599 59.9436 94.6955 62.3299 96.9599 62.3299Z" fill="#D4FF60"/>
<path d="M65.8 70.1203C68.2908 70.1203 70.31 67.9175 70.31 65.2003C70.31 62.483 68.2908 60.2803 65.8 60.2803C63.3092 60.2803 61.29 62.483 61.29 65.2003C61.29 67.9175 63.3092 70.1203 65.8 70.1203Z" fill="white"/>
<path d="M82.1999 70.1203C84.6907 70.1203 86.7099 67.9175 86.7099 65.2003C86.7099 62.483 84.6907 60.2803 82.1999 60.2803C79.7091 60.2803 77.6899 62.483 77.6899 65.2003C77.6899 67.9175 79.7091 70.1203 82.1999 70.1203Z" fill="white"/>
<path d="M66.6202 68.4796C67.9788 68.4796 69.0802 67.3782 69.0802 66.0196C69.0802 64.6609 67.9788 63.5596 66.6202 63.5596C65.2615 63.5596 64.1602 64.6609 64.1602 66.0196C64.1602 67.3782 65.2615 68.4796 66.6202 68.4796Z" fill="#2E1A80"/>
<path d="M83.0201 68.4796C84.3787 68.4796 85.4801 67.3782 85.4801 66.0196C85.4801 64.6609 84.3787 63.5596 83.0201 63.5596C81.6614 63.5596 80.5601 64.6609 80.5601 66.0196C80.5601 67.3782 81.6614 68.4796 83.0201 68.4796Z" fill="#2E1A80"/>
<path d="M67.8502 65.8146C68.4163 65.8146 68.8752 65.3557 68.8752 64.7896C68.8752 64.2236 68.4163 63.7646 67.8502 63.7646C67.2841 63.7646 66.8252 64.2236 66.8252 64.7896C66.8252 65.3557 67.2841 65.8146 67.8502 65.8146Z" fill="white"/>
<path d="M84.2501 65.8146C84.8162 65.8146 85.2751 65.3557 85.2751 64.7896C85.2751 64.2236 84.8162 63.7646 84.2501 63.7646C83.684 63.7646 83.2251 64.2236 83.2251 64.7896C83.2251 65.3557 83.684 65.8146 84.2501 65.8146Z" fill="white"/>
<path d="M61.6997 59.8703C64.433 58.5037 67.1664 58.367 69.8997 59.4603" stroke="#2E1A80" stroke-width="0.778409" stroke-linecap="round"/>
<path d="M78.1001 59.4603C80.8334 58.367 83.5668 58.5037 86.3001 59.8703" stroke="#2E1A80" stroke-width="0.778409" stroke-linecap="round"/>
<path opacity="0.45" d="M58.4202 77.09C61.5903 77.09 64.1602 75.4379 64.1602 73.4C64.1602 71.362 61.5903 69.71 58.4202 69.71C55.2501 69.71 52.6802 71.362 52.6802 73.4C52.6802 75.4379 55.2501 77.09 58.4202 77.09Z" fill="#8B63FF"/>
<path opacity="0.45" d="M89.5803 77.09C92.7504 77.09 95.3203 75.4379 95.3203 73.4C95.3203 71.362 92.7504 69.71 89.5803 69.71C86.4102 69.71 83.8403 71.362 83.8403 73.4C83.8403 75.4379 86.4102 77.09 89.5803 77.09Z" fill="#8B63FF"/>
<path d="M64.98 78.3203C70.9933 83.787 77.0066 83.787 83.02 78.3203" stroke="white" stroke-width="1.08977" stroke-linecap="round"/>
<path opacity="0.85" d="M69.0796 92.2598H67.4396C66.9868 92.2598 66.6196 92.6269 66.6196 93.0798V97.9998C66.6196 98.4526 66.9868 98.8198 67.4396 98.8198H69.0796C69.5325 98.8198 69.8996 98.4526 69.8996 97.9998V93.0798C69.8996 92.6269 69.5325 92.2598 69.0796 92.2598Z" fill="#BDFB46"/>
<path opacity="0.85" d="M74 88.9805H72.36C71.9072 88.9805 71.54 89.3476 71.54 89.8005V98.0005C71.54 98.4533 71.9072 98.8205 72.36 98.8205H74C74.4529 98.8205 74.82 98.4533 74.82 98.0005V89.8005C74.82 89.3476 74.4529 88.9805 74 88.9805Z" fill="#BDFB46"/>
<path opacity="0.85" d="M78.92 90.6201H77.28C76.8271 90.6201 76.46 90.9872 76.46 91.4401V98.0001C76.46 98.453 76.8271 98.8201 77.28 98.8201H78.92C79.3728 98.8201 79.74 98.453 79.74 98.0001V91.4401C79.74 90.9872 79.3728 90.6201 78.92 90.6201Z" fill="#BDFB46"/>
<path d="M73.18 87.3399V84.8799L71.54 86.5199L73.18 84.8799L74.82 86.5199" stroke="#BDFB46" stroke-width="0.560455" stroke-linecap="round" stroke-linejoin="round"/>
<path opacity="0.6" d="M19.0601 121.78L19.8801 119.32L20.7001 121.78H23.1601L21.1101 123.42L21.9301 125.88L19.8801 124.24L17.8301 125.88L18.6501 123.42L16.6001 121.78H19.0601Z" fill="#BDFB46"/>
<path opacity="0.5" d="M125.66 117.68L126.48 115.63L127.3 117.68H129.35L127.71 118.91L128.53 120.96L126.48 119.73L124.43 120.96L125.25 118.91L123.61 117.68H125.66Z" fill="#BDFB46"/>
</svg>
