<svg width="24" height="24" viewBox="0 0 24 24" fill="none" xmlns="http://www.w3.org/2000/svg">
<g clip-path="url(#clip0_857_2803)">
<path d="M12.0039 0C6.99403 0 5.52882 0.00517032 5.24402 0.0287999C4.21591 0.114284 3.57616 0.276208 2.87917 0.623305C2.34205 0.890106 1.91843 1.19936 1.50035 1.63287C0.73896 2.42346 0.277507 3.3961 0.110458 4.55226C0.0292467 5.11354 0.00561688 5.228 0.000818394 8.09496C-0.00102299 9.05061 0.000818394 10.3083 0.000818394 11.9953C0.000818394 17.0025 0.00635159 18.4666 0.0303531 18.7509C0.113415 19.7516 0.270305 20.3812 0.602552 21.0699C1.23751 22.3882 2.4502 23.3778 3.87886 23.7471C4.37354 23.8744 4.9199 23.9446 5.6213 23.9778C5.91848 23.9908 8.94744 24 11.9783 24C15.0091 24 18.0399 23.9963 18.3297 23.9815C19.1418 23.9433 19.6134 23.88 20.1349 23.7452C21.5728 23.3741 22.7633 22.3992 23.4112 21.0625C23.737 20.3905 23.9022 19.7369 23.9769 18.7884C23.9932 18.5816 24 15.2847 24 11.9922C24 8.69907 23.9926 5.40821 23.9764 5.20142C23.9007 4.23765 23.7355 3.5896 23.3992 2.90461C23.1232 2.34388 22.8168 1.92514 22.372 1.49699C21.5781 0.738523 20.6072 0.276943 19.4503 0.110039C18.8897 0.0289815 18.778 0.00497991 15.9096 0H12.0039Z" fill="url(#paint0_radial_857_2803)"/>
<path d="M12.0039 0C6.99403 0 5.52882 0.00517032 5.24402 0.0287999C4.21591 0.114284 3.57616 0.276208 2.87917 0.623305C2.34205 0.890106 1.91843 1.19936 1.50035 1.63287C0.73896 2.42346 0.277507 3.3961 0.110458 4.55226C0.0292467 5.11354 0.00561688 5.228 0.000818394 8.09496C-0.00102299 9.05061 0.000818394 10.3083 0.000818394 11.9953C0.000818394 17.0025 0.00635159 18.4666 0.0303531 18.7509C0.113415 19.7516 0.270305 20.3812 0.602552 21.0699C1.23751 22.3882 2.4502 23.3778 3.87886 23.7471C4.37354 23.8744 4.9199 23.9446 5.6213 23.9778C5.91848 23.9908 8.94744 24 11.9783 24C15.0091 24 18.0399 23.9963 18.3297 23.9815C19.1418 23.9433 19.6134 23.88 20.1349 23.7452C21.5728 23.3741 22.7633 22.3992 23.4112 21.0625C23.737 20.3905 23.9022 19.7369 23.9769 18.7884C23.9932 18.5816 24 15.2847 24 11.9922C24 8.69907 23.9926 5.40821 23.9764 5.20142C23.9007 4.23765 23.7355 3.5896 23.3992 2.90461C23.1232 2.34388 22.8168 1.92514 22.372 1.49699C21.5781 0.738523 20.6072 0.276943 19.4503 0.110039C18.8897 0.0289815 18.778 0.00497991 15.9096 0H12.0039Z" fill="url(#paint1_radial_857_2803)"/>
<path d="M12.0039 0C6.99403 0 5.52882 0.00517032 5.24402 0.0287999C4.21591 0.114284 3.57616 0.276208 2.87917 0.623305C2.34205 0.890106 1.91843 1.19936 1.50035 1.63287C0.73896 2.42346 0.277507 3.3961 0.110458 4.55226C0.0292467 5.11354 0.00561688 5.228 0.000818394 8.09496C-0.00102299 9.05061 0.000818394 10.3083 0.000818394 11.9953C0.000818394 17.0025 0.00635159 18.4666 0.0303531 18.7509C0.113415 19.7516 0.270305 20.3812 0.602552 21.0699C1.23751 22.3882 2.4502 23.3778 3.87886 23.7471C4.37354 23.8744 4.9199 23.9446 5.6213 23.9778C5.91848 23.9908 8.94744 24 11.9783 24C15.0091 24 18.0399 23.9963 18.3297 23.9815C19.1418 23.9433 19.6134 23.88 20.1349 23.7452C21.5728 23.3741 22.7633 22.3992 23.4112 21.0625C23.737 20.3905 23.9022 19.7369 23.9769 18.7884C23.9932 18.5816 24 15.2847 24 11.9922C24 8.69907 23.9926 5.40821 23.9764 5.20142C23.9007 4.23765 23.7355 3.5896 23.3992 2.90461C23.1232 2.34388 22.8168 1.92514 22.372 1.49699C21.5781 0.738523 20.6072 0.276943 19.4503 0.110039C18.8897 0.0289815 18.778 0.00497991 15.9096 0H12.0039Z" fill="url(#paint2_radial_857_2803)"/>
<path d="M12.0039 0C6.99403 0 5.52882 0.00517032 5.24402 0.0287999C4.21591 0.114284 3.57616 0.276208 2.87917 0.623305C2.34205 0.890106 1.91843 1.19936 1.50035 1.63287C0.73896 2.42346 0.277507 3.3961 0.110458 4.55226C0.0292467 5.11354 0.00561688 5.228 0.000818394 8.09496C-0.00102299 9.05061 0.000818394 10.3083 0.000818394 11.9953C0.000818394 17.0025 0.00635159 18.4666 0.0303531 18.7509C0.113415 19.7516 0.270305 20.3812 0.602552 21.0699C1.23751 22.3882 2.4502 23.3778 3.87886 23.7471C4.37354 23.8744 4.9199 23.9446 5.6213 23.9778C5.91848 23.9908 8.94744 24 11.9783 24C15.0091 24 18.0399 23.9963 18.3297 23.9815C19.1418 23.9433 19.6134 23.88 20.1349 23.7452C21.5728 23.3741 22.7633 22.3992 23.4112 21.0625C23.737 20.3905 23.9022 19.7369 23.9769 18.7884C23.9932 18.5816 24 15.2847 24 11.9922C24 8.69907 23.9926 5.40821 23.9764 5.20142C23.9007 4.23765 23.7355 3.5896 23.3992 2.90461C23.1232 2.34388 22.8168 1.92514 22.372 1.49699C21.5781 0.738523 20.6072 0.276943 19.4503 0.110039C18.8897 0.0289815 18.778 0.00497991 15.9096 0H12.0039Z" fill="url(#paint3_radial_857_2803)"/>
<path d="M12.0047 3.08154C9.58125 3.08154 9.27711 3.09213 8.32528 3.13541C7.37531 3.17888 6.72688 3.32917 6.1595 3.54968C5.57261 3.77742 5.07475 4.08208 4.57877 4.57788C4.08241 5.07351 3.77752 5.57099 3.54886 6.15727C3.32763 6.72441 3.17704 7.37254 3.13429 8.32144C3.09172 9.27256 3.08057 9.57666 3.08057 11.9983C3.08057 14.4199 3.09135 14.7229 3.13447 15.674C3.17817 16.6233 3.32856 17.2713 3.54904 17.8382C3.77715 18.4247 4.08203 18.9222 4.5782 19.4178C5.07402 19.9138 5.57186 20.2192 6.15838 20.4469C6.72613 20.6674 7.37476 20.8177 8.32453 20.8612C9.27637 20.9045 9.58031 20.9151 12.0036 20.9151C14.4272 20.9151 14.7304 20.9045 15.6822 20.8612C16.6322 20.8177 17.2814 20.6674 17.8491 20.4469C18.4358 20.2192 18.933 19.9138 19.4288 19.4178C19.9251 18.9222 20.23 18.4247 20.4587 17.8384C20.678 17.2713 20.8286 16.6231 20.8732 15.6742C20.916 14.7231 20.9271 14.4199 20.9271 11.9983C20.9271 9.57665 20.916 9.27275 20.8732 8.32162C20.8286 7.37235 20.678 6.72441 20.4587 6.15746C20.23 5.57099 19.9251 5.07351 19.4288 4.57788C18.9324 4.08189 18.436 3.77723 17.8486 3.54967C17.2797 3.32917 16.6309 3.17888 15.6809 3.13541C14.7291 3.09213 14.4261 3.08154 12.0019 3.08154H12.0047ZM11.2042 4.68842C11.4418 4.68805 11.7069 4.68842 12.0047 4.68842C14.3872 4.68842 14.6696 4.69696 15.6105 4.73969C16.4805 4.77945 16.9527 4.92471 17.2672 5.04676C17.6837 5.20837 17.9806 5.40157 18.2927 5.71365C18.605 6.02575 18.7983 6.32297 18.9605 6.73908C19.0826 7.05302 19.2282 7.52487 19.2678 8.39426C19.3105 9.33423 19.3198 9.61659 19.3198 11.9963C19.3198 14.3759 19.3105 14.6583 19.2678 15.5983C19.228 16.4676 19.0826 16.9395 18.9605 17.2534C18.7987 17.6695 18.605 17.9658 18.2927 18.2777C17.9804 18.5898 17.6839 18.783 17.2672 18.9446C16.9531 19.0672 16.4805 19.2121 15.6105 19.2519C14.6698 19.2946 14.3872 19.3039 12.0047 19.3039C9.62196 19.3039 9.33957 19.2946 8.3989 19.2519C7.52887 19.2118 7.05668 19.0665 6.74194 18.9445C6.32552 18.7828 6.02806 18.5896 5.71575 18.2775C5.40343 17.9655 5.2101 17.669 5.04798 17.2527C4.92584 16.9387 4.78028 16.4669 4.74069 15.5975C4.69793 14.6575 4.68938 14.3752 4.68938 11.994C4.68938 9.61289 4.69793 9.332 4.74069 8.39203C4.78047 7.52264 4.92584 7.0508 5.04798 6.73649C5.20972 6.32037 5.40343 6.02314 5.71575 5.71106C6.02806 5.39897 6.32552 5.20578 6.74194 5.04379C7.05649 4.92118 7.52887 4.77629 8.3989 4.73634C9.22208 4.69919 9.54109 4.68805 11.2042 4.68618L11.2042 4.68842ZM16.7679 6.16897C16.1767 6.16897 15.6971 6.64769 15.6971 7.2386C15.6971 7.82934 16.1767 8.30862 16.7679 8.30862C17.3591 8.30862 17.8387 7.82934 17.8387 7.2386C17.8387 6.64787 17.3591 6.1686 16.7679 6.1686L16.7679 6.16897ZM12.0047 7.41917C9.47398 7.41917 7.42216 9.46947 7.42216 11.9983C7.42216 14.5271 9.47398 16.5765 12.0047 16.5765C14.5354 16.5765 16.5865 14.5271 16.5865 11.9983C16.5865 9.46947 14.5352 7.41917 12.0045 7.41917H12.0047ZM12.0047 9.02605C13.6473 9.02605 14.9791 10.3567 14.9791 11.9983C14.9791 13.6397 13.6473 14.9705 12.0047 14.9705C10.3619 14.9705 9.03023 13.6397 9.03023 11.9983C9.03023 10.3567 10.3619 9.02605 12.0047 9.02605Z" fill="white"/>
</g>
<defs>
<radialGradient id="paint0_radial_857_2803" cx="0" cy="0" r="1" gradientTransform="matrix(-14.7589 4.16236 -2.99883 -10.6331 23.225 11.2491)" gradientUnits="userSpaceOnUse">
<stop stop-color="#FF005F"/>
<stop offset="1" stop-color="#FC01D8"/>
</radialGradient>
<radialGradient id="paint1_radial_857_2803" cx="0" cy="0" r="1" gradientUnits="userSpaceOnUse" gradientTransform="translate(6.37482 25.8485) rotate(-90) scale(19.1572 20.3254)">
<stop stop-color="#FFCC00"/>
<stop offset="0.1242" stop-color="#FFCC00"/>
<stop offset="0.5672" stop-color="#FE4A05"/>
<stop offset="0.6942" stop-color="#FF0F3F"/>
<stop offset="1" stop-color="#FE0657" stop-opacity="0"/>
</radialGradient>
<radialGradient id="paint2_radial_857_2803" cx="0" cy="0" r="1" gradientTransform="matrix(3.97636 -6.8514 8.91974 5.1768 12.6065 23.6615)" gradientUnits="userSpaceOnUse">
<stop stop-color="#FFCC00"/>
<stop offset="1" stop-color="#FFCC00" stop-opacity="0"/>
</radialGradient>
<radialGradient id="paint3_radial_857_2803" cx="0" cy="0" r="1" gradientTransform="matrix(-14.5969 4.11024 -1.4 -4.97325 3.25629 0.977273)" gradientUnits="userSpaceOnUse">
<stop stop-color="#780CFF"/>
<stop offset="1" stop-color="#820BFF" stop-opacity="0"/>
</radialGradient>
<clipPath id="clip0_857_2803">
<rect width="24" height="24" fill="white"/>
</clipPath>
</defs>
</svg>
