<svg width="158" height="30" viewBox="0 0 158 30" fill="none" xmlns="http://www.w3.org/2000/svg">
<g clip-path="url(#clip0_51_159)">
<path d="M1.55039 21.8915C2.40665 21.8915 3.10078 20.4672 3.10078 18.7103C3.10078 16.9533 2.40665 15.5291 1.55039 15.5291C0.694134 15.5291 0 16.9533 0 18.7103C0 20.4672 0.694134 21.8915 1.55039 21.8915Z" fill="#663EF2"/>
<path d="M6.24258 26.0743C7.31312 26.0743 8.18097 22.6756 8.18097 18.4832C8.18097 14.2907 7.31312 10.8921 6.24258 10.8921C5.17204 10.8921 4.3042 14.2907 4.3042 18.4832C4.3042 22.6756 5.17204 26.0743 6.24258 26.0743Z" fill="#663EF2"/>
<path d="M11.4506 29.0837C12.8775 29.0837 14.0341 23.7926 14.0341 17.2657C14.0341 10.7388 12.8775 5.44775 11.4506 5.44775C10.0238 5.44775 8.86719 10.7388 8.86719 17.2657C8.86719 23.7926 10.0238 29.0837 11.4506 29.0837Z" fill="#663EF2"/>
<path d="M27.3363 26.0743C28.4069 26.0743 29.2747 22.6756 29.2747 18.4832C29.2747 14.2907 28.4069 10.8921 27.3363 10.8921C26.2658 10.8921 25.3979 14.2907 25.3979 18.4832C25.3979 22.6756 26.2658 26.0743 27.3363 26.0743Z" fill="#663EF2"/>
<path d="M22.1264 29.0837C23.5532 29.0837 24.7099 23.7926 24.7099 17.2657C24.7099 10.7388 23.5532 5.44775 22.1264 5.44775C20.6996 5.44775 19.543 10.7388 19.543 17.2657C19.543 23.7926 20.6996 29.0837 22.1264 29.0837Z" fill="#663EF2"/>
<path d="M32.0533 21.8915C32.9096 21.8915 33.6037 20.4672 33.6037 18.7103C33.6037 16.9533 32.9096 15.5291 32.0533 15.5291C31.1971 15.5291 30.5029 16.9533 30.5029 18.7103C30.5029 20.4672 31.1971 21.8915 32.0533 21.8915Z" fill="#663EF2"/>
<path d="M16.7891 29.9984C18.6445 29.9984 20.1486 23.283 20.1486 14.9992C20.1486 6.71538 18.6445 0 16.7891 0C14.9338 0 13.4297 6.71538 13.4297 14.9992C13.4297 23.283 14.9338 29.9984 16.7891 29.9984Z" fill="#663EF2"/>
<path d="M45.8921 1.18286H60.2462C62.0411 1.18286 63.6009 1.47622 64.9274 2.05979C66.2538 2.64493 67.32 3.41303 68.1259 4.36093C68.9319 5.3104 69.5233 6.33716 69.9003 7.44278C70.2772 8.5484 70.4665 9.63352 70.4665 10.6997C70.4665 13.9503 69.4776 16.4139 67.5014 18.0921C65.5251 19.7702 62.8723 20.6077 59.5444 20.6077H54.4737V29.0331H45.8921V1.18286ZM54.4721 13.9771H57.7874C58.4624 13.9771 59.0554 13.9519 59.5617 13.8983C60.068 13.8462 60.5364 13.7232 60.9654 13.5276C61.3944 13.3321 61.732 13.034 61.9796 12.6302C62.2272 12.228 62.3502 11.6886 62.3502 11.012C62.3502 10.4142 62.2461 9.92688 62.0379 9.54993C61.8297 9.17298 61.5364 8.90012 61.161 8.73136C60.7841 8.5626 60.374 8.45219 59.9324 8.40015C59.4892 8.3481 58.9435 8.32286 58.2936 8.32286H54.4705V13.9787L54.4721 13.9771Z" fill="#663EF2"/>
<path d="M73.3511 1.18286H96.4035V8.32129H81.9326V11.7927H95.0771V18.4233H81.9326V21.8947H96.8325V29.0331H73.3511V1.18286Z" fill="#663EF2"/>
<path d="M108.536 1.18286H116.922L127.063 29.0331H118.169L116.999 25.0538H108.144L106.897 29.0331H98.2759L108.536 1.18286ZM115.283 19.0873L112.786 10.5057H112.709L110.018 19.0873H115.284H115.283Z" fill="#663EF2"/>
<path d="M129.208 1.18286H137.79V10.7786H137.868L145.513 1.18286H156.084L145.982 12.0656L157.722 29.0331H147.035L140.17 18.1899L137.79 20.8033V29.0331H129.208V1.18286Z" fill="#663EF2"/>
</g>
<defs>
<clipPath id="clip0_51_159">
<rect width="157.72" height="30" fill="white"/>
</clipPath>
</defs>
</svg>
